<svg xmlns="http://www.w3.org/2000/svg" version="1.1" xmlns:xlink="http://www.w3.org/1999/xlink" xmlns:svgjs="http://svgjs.com/svgjs" width="1920" height="1080" preserveAspectRatio="none" viewBox="0 0 1920 1080"><g mask="url(&quot;#SvgjsMask1157&quot;)" fill="none"><rect width="1920" height="1080" x="0" y="0" fill="rgba(8, 8, 8, 1)"></rect><path d="M631.08 386.83L657.71 386.83L657.71 408.93L631.08 408.93z" fill="#037b0b"></path><path d="M590.42 233.54L688.92 233.54L688.92 305.99L590.42 305.99z" stroke="#e73635"></path><path d="M779.28 196.82 a58.78 58.78 0 1 0 117.56 0 a58.78 58.78 0 1 0 -117.56 0z" fill="#e73635"></path><path d="M784.34 870.44a33.34 33.34 0 1 0-1.64 66.66z" fill="#e73635"></path><path d="M746.37 687.62 a92.09 92.09 0 1 0 184.18 0 a92.09 92.09 0 1 0 -184.18 0z" stroke="#d3b714"></path><path d="M97.65 722.56L142.82 722.56L142.82 767.73L97.65 767.73z" fill="#d3b714"></path><path d="M1653.15 544.49L1679.01 544.49L1679.01 601.87L1653.15 601.87z" stroke="#037b0b"></path><path d="M304.7 507.46L308.02 507.46L308.02 535.7L304.7 535.7z" stroke="#e73635"></path><path d="M673.54 1014.87L709.82 1014.87L709.82 1089.28L673.54 1089.28z" stroke="#037b0b"></path><path d="M104.02 417.94L124.35 417.94L124.35 438.27L104.02 438.27z" fill="rgba(9, 22, 162, 1)"></path><path d="M1030.37 163.15L1111.26 163.15L1111.26 244.04L1030.37 244.04z" fill="#e73635"></path><path d="M1911.78 832.96L1940.08 832.96L1940.08 861.26L1911.78 861.26z" stroke="rgba(9, 22, 162, 1)"></path><path d="M1127.35 418.31 a107.51 107.51 0 1 0 215.02 0 a107.51 107.51 0 1 0 -215.02 0z" stroke="#e73635"></path><path d="M1386.01 1036.83L1460.59 1036.83L1460.59 1111.41L1386.01 1111.41z" fill="rgba(9, 22, 162, 1)"></path><path d="M789.52 246.09L793.37 246.09L793.37 249.94L789.52 249.94z" stroke="#037b0b"></path><path d="M-5.88 851.68a102.69 102.69 0 1 0 135.64 154.22z" fill="rgba(9, 22, 162, 1)"></path><path d="M1533.94 152.3a69.95 69.95 0 1 0 72.67-119.54z" fill="#d3b714"></path><path d="M366.59 584.6L392.95 584.6L392.95 650.74L366.59 650.74z" fill="rgba(9, 22, 162, 1)"></path><path d="M844.9 573.31a63.46 63.46 0 1 0 56.15 113.83z" fill="#037b0b"></path><path d="M1717.3 111.53a91.48 91.48 0 1 0-97.66 154.72z" stroke="rgba(9, 22, 162, 1)"></path><path d="M1202.9 215.18 a15.94 15.94 0 1 0 31.88 0 a15.94 15.94 0 1 0 -31.88 0z" fill="rgba(9, 22, 162, 1)"></path><path d="M887.41 89.48L908.06 89.48L908.06 110.13L887.41 110.13z" fill="#d3b714"></path><path d="M952.77 691.52L995.1 691.52L995.1 733.85L952.77 733.85z" stroke="#e73635"></path></g><defs><mask id="SvgjsMask1157"><rect width="1920" height="1080" fill="#ffffff"></rect></mask></defs></svg>