<svg xmlns="http://www.w3.org/2000/svg" version="1.1" xmlns:xlink="http://www.w3.org/1999/xlink" xmlns:svgjs="http://svgjs.com/svgjs" width="1920" height="1080" preserveAspectRatio="none" viewBox="0 0 1920 1080"><g mask="url(&quot;#SvgjsMask1257&quot;)" fill="none"><rect width="1920" height="1080" x="0" y="0" fill="url(#SvgjsLinearGradient1258)"></rect><path d="M771.45 356.01a4.98 4.98 0 1 0-8.93 4.4z" fill="rgba(60, 218, 237, 1)"></path><path d="M0.21 986.39L77.41 986.39L77.41 1063.59L0.21 1063.59z" fill="rgba(122, 255, 151, 1)"></path><path d="M846.84 128.2a17.66 17.66 0 1 0-32.22-14.49z" fill="rgba(9, 22, 162, 1)"></path><path d="M817.86 946.37a101.59 101.59 0 1 0 35.01 200.14z" fill="#d3b714"></path><path d="M1003.48 812.63a90.04 90.04 0 1 0 72 165.06z" fill="rgba(122, 255, 151, 1)"></path><path d="M675.18 7.17L725.22 7.17L725.22 57.21L675.18 57.21z" fill="#e73635"></path><path d="M726.35 912.95L762.91 912.95L762.91 949.51L726.35 949.51z" stroke="rgba(60, 218, 237, 1)"></path><path d="M212.38 294.45L302.79 294.45L302.79 338.93L212.38 338.93z" fill="#e73635"></path><path d="M1655.78 95.36 a60.92 60.92 0 1 0 121.84 0 a60.92 60.92 0 1 0 -121.84 0z" stroke="#d3b714"></path><path d="M1212.6 976.64a87.01 87.01 0 1 0 173.7 10.68z" fill="#d3b714"></path><path d="M153.11 677.17L227.27 677.17L227.27 687.32L153.11 687.32z" fill="#e73635"></path><path d="M622.11 178.22 a105.74 105.74 0 1 0 211.48 0 a105.74 105.74 0 1 0 -211.48 0z" fill="rgba(60, 218, 237, 1)"></path><path d="M381.46 194.28a28.22 28.22 0 1 0 56.38 2.56z" fill="#d3b714"></path><path d="M274.29 654.61 a23.59 23.59 0 1 0 47.18 0 a23.59 23.59 0 1 0 -47.18 0z" fill="#e73635"></path><path d="M1759.44 580.31L1778.8 580.31L1778.8 617.17L1759.44 617.17z" fill="rgba(9, 22, 162, 1)"></path><path d="M734.84 755.44a32.47 32.47 0 1 0 60.68-23.12z" fill="rgba(60, 218, 237, 1)"></path><path d="M1267.89 510.73 a60.1 60.1 0 1 0 120.2 0 a60.1 60.1 0 1 0 -120.2 0z" fill="#e73635"></path><path d="M557.39 587.64 a39.66 39.66 0 1 0 79.32 0 a39.66 39.66 0 1 0 -79.32 0z" stroke="#e73635"></path><path d="M1859.69 204.43L1960.18 204.43L1960.18 230.57L1859.69 230.57z" stroke="rgba(60, 218, 237, 1)"></path><path d="M1450.44 873.91 a89.08 89.08 0 1 0 178.16 0 a89.08 89.08 0 1 0 -178.16 0z" fill="#e73635"></path><path d="M898.76 362.5L943.6 362.5L943.6 404.29L898.76 404.29z" fill="rgba(60, 218, 237, 1)"></path><path d="M1676.5 680.52L1715 680.52L1715 719.02L1676.5 719.02z" stroke="rgba(60, 218, 237, 1)"></path><path d="M1418.54 415.42 a92.9 92.9 0 1 0 185.8 0 a92.9 92.9 0 1 0 -185.8 0z" stroke="#d3b714"></path></g><defs><mask id="SvgjsMask1257"><rect width="1920" height="1080" fill="#ffffff"></rect></mask><linearGradient x1="10.94%" y1="-19.44%" x2="89.06%" y2="119.44%" gradientUnits="userSpaceOnUse" id="SvgjsLinearGradient1258"><stop stop-color="#0e2a47" offset="0"></stop><stop stop-color="rgba(0, 0, 0, 1)" offset="1"></stop></linearGradient></defs></svg>